<?xml version="1.0" encoding="utf-8"?>
<!-- Generator: Adobe Illustrator 18.0.0, SVG Export Plug-In . SVG Version: 6.00 Build 0)  -->
<!DOCTYPE svg PUBLIC "-//W3C//DTD SVG 1.1//EN" "http://www.w3.org/Graphics/SVG/1.1/DTD/svg11.dtd">
<svg version="1.1"
	 id="svg2" xmlns:dc="http://purl.org/dc/elements/1.1/" xmlns:cc="http://creativecommons.org/ns#" xmlns:rdf="http://www.w3.org/1999/02/22-rdf-syntax-ns#" xmlns:svg="http://www.w3.org/2000/svg" xmlns:sodipodi="http://sodipodi.sourceforge.net/DTD/sodipodi-0.dtd" xmlns:inkscape="http://www.inkscape.org/namespaces/inkscape" sodipodi:version="0.32" sodipodi:docname="Bing logo.svg" inkscape:version="0.46" inkscape:output_extension="org.inkscape.output.svg.inkscape"
	 xmlns="http://www.w3.org/2000/svg" xmlns:xlink="http://www.w3.org/1999/xlink" x="0px" y="0px" viewBox="0 123.3 595.3 595.3"
	 enable-background="new 0 123.3 595.3 595.3" xml:space="preserve">
<defs>
	
	
		<inkscape:perspective  sodipodi:type="inkscape:persp3d" inkscape:vp_x="0 : 526.18109 : 1" inkscape:vp_y="0 : 1000 : 0" inkscape:vp_z="744.09448 : 526.18109 : 1" id="perspective10" inkscape:persp3d-origin="372.04724 : 350.78739 : 1">
		</inkscape:perspective>
	
		<inkscape:perspective  sodipodi:type="inkscape:persp3d" inkscape:vp_x="0 : 526.18109 : 1" inkscape:vp_y="0 : 1000 : 0" inkscape:vp_z="744.09448 : 526.18109 : 1" id="perspective2390" inkscape:persp3d-origin="372.04724 : 350.78739 : 1">
		</inkscape:perspective>
</defs>
<sodipodi:namedview  pagecolor="#ffffff" bordercolor="#666666" borderopacity="1.0" gridtolerance="10000" guidetolerance="10" objecttolerance="10" inkscape:zoom="0.60860159" inkscape:cx="269.55035" inkscape:cy="120" showgrid="false" showguides="true" id="base" inkscape:pageopacity="0.0" inkscape:pageshadow="2" inkscape:document-units="px" inkscape:current-layer="layer1" inkscape:guide-bbox="true" inkscape:window-width="1024" inkscape:window-height="721" inkscape:window-x="-4" inkscape:window-y="-4">
	</sodipodi:namedview>
<g id="svg2_1_" xmlns:dc="http://purl.org/dc/elements/1.1/" xmlns:cc="http://creativecommons.org/ns#" xmlns:rdf="http://www.w3.org/1999/02/22-rdf-syntax-ns#" xmlns:svg="http://www.w3.org/2000/svg" xmlns:sodipodi="http://sodipodi.sourceforge.net/DTD/sodipodi-0.dtd" xmlns:inkscape="http://www.inkscape.org/namespaces/inkscape" sodipodi:version="0.32" sodipodi:docname="Bing logo.svg" inkscape:version="0.46" inkscape:output_extension="org.inkscape.output.svg.inkscape">
	<defs>
		
		
			<inkscape:perspective  sodipodi:type="inkscape:persp3d" inkscape:vp_x="0 : 526.18109 : 1" inkscape:vp_y="0 : 1000 : 0" inkscape:vp_z="744.09448 : 526.18109 : 1" id="perspective10" inkscape:persp3d-origin="372.04724 : 350.78739 : 1">
			</inkscape:perspective>
		
			<inkscape:perspective  sodipodi:type="inkscape:persp3d" inkscape:vp_x="0 : 526.18109 : 1" inkscape:vp_y="0 : 1000 : 0" inkscape:vp_z="744.09448 : 526.18109 : 1" id="perspective2390" inkscape:persp3d-origin="372.04724 : 350.78739 : 1">
			</inkscape:perspective>
	</defs>
	
		<sodipodi:namedview  pagecolor="#ffffff" bordercolor="#666666" borderopacity="1.0" gridtolerance="10000" guidetolerance="10" objecttolerance="10" inkscape:zoom="0.60860159" inkscape:cx="269.55035" inkscape:cy="120" showgrid="false" showguides="true" id="base" inkscape:pageopacity="0.0" inkscape:pageshadow="2" inkscape:document-units="px" inkscape:current-layer="layer1" inkscape:guide-bbox="true" inkscape:window-width="1024" inkscape:window-height="721" inkscape:window-x="-4" inkscape:window-y="-4">
		</sodipodi:namedview>
</g>
<g id="layer1" transform="translate(-280.67154,-494.78412)" inkscape:label="Layer 1" inkscape:groupmode="layer">
	<path id="text2396" sodipodi:nodetypes="ccccccccssssssscc" fill="#0075BE" d="M535.4,894.2v56.2h22.8v-56.5
		c1.9-32.1,87.7-42.6,96,0v56.5H678v-56.2c0-6.5-1.5-12.4-4.9-17.6c-3.1-5.2-8-9.9-13.9-13.6c-6.2-3.7-13.6-6.8-22.2-9
		c-8.6-2.2-18.8-3.1-29.6-3.1c-11.1,0-21,1.2-29.6,3.4c-8.6,2.2-16.4,5.2-22.5,9c-6.2,4-11.1,8.3-14.5,13.9
		C536.9,882.4,535.4,888,535.4,894.2L535.4,894.2z"/>
	<path id="rect2401" sodipodi:nodetypes="ccccc" fill="#0075BE" d="M496.5,856.8c9,3.7,16.4,1.9,23.8,0V951h-23.8V856.8z"/>
	
		<path id="path2404" sodipodi:type="arc" sodipodi:ry="11.080844" sodipodi:rx="16.241785" sodipodi:cy="454.75558" sodipodi:cx="295.84335" fill="#FBA829" d="
		M525.5,834.6c0,6.8-7.7,12-17.3,12c-9.6,0-17.3-5.6-17.3-12c0-6.8,7.7-12,17.3-12C517.8,822.6,525.5,828.1,525.5,834.6L525.5,834.6
		z"/>
	<path id="text2406" sodipodi:nodetypes="csccccccsssscccsssz" fill="#0075BE" d="M486,908.4c3.1-21.6-12-35.8-21.9-42.6
		c-14.5-10.2-33-15.1-50.9-16.1c-21-0.3-41.7,2.5-60.2,15.4V825h-23.5v72.6c-0.3,30.6,20.1,43.5,46.6,53.4
		c9.6,2.5,20.1,3.4,31.8,3.4c11.4,0,21.9-1.2,31.5-3.4c9.6-2.5,17.9-6.2,24.7-10.2c6.8-4.3,12.4-9,16.1-14.5
		C483.8,920.4,486,914.5,486,908.4L486,908.4z M414.7,941.7c-26.2,0.9-57.1-7.1-60.2-38c-1.5-17.3,15.4-38.9,53.4-40.1
		c15.4-0.6,51.9,8,54.3,37.4C463.8,919.2,440.9,940.8,414.7,941.7z"/>
	<path id="text2411" sodipodi:nodetypes="cccccssssssssccsccsscscssss" fill="#0075BE" d="M816.4,893.9c0-11.1-6.2-19.1-13-25.9
		c7.7-0.9,15.7-0.9,23.8-0.3v-21.6c-15.4-1.2-33.3,3.4-42.6,9.6c-2.5-0.9-4.9-1.9-7.7-2.5c-8-2.5-17-3.4-26.9-3.4
		c-9.9,0-18.8,1.2-26.9,3.4c-8,2.5-15.1,5.6-21,9.6c-5.9,4-10.5,8.6-13.6,13.9c-3.4,5.2-4.9,11.1-4.9,17.3c0,6.2,1.5,11.7,4.9,17
		c3.4,5.2,7.7,9.9,13.3,13.9c5.6,4,12.4,7.1,19.8,9.3c14.2,3.4,29.9,5.2,44.5,2.5c39.2,15.1,23.8,45.4,9,51.9
		c-27.2,11.7-52.2,5.2-63.3-12.7h-25.3c9.3,25.3,45.4,32.7,62.7,33c37.7,0.3,79.7-24.4,63-59.3c-4.6-9.9-16.4-18.2-23.5-20.1
		C806.5,921.6,816.4,908.7,816.4,893.9z M750,924.4c-23.2,0-41.7-13.9-41.7-30.3c0-20.7,26.2-30.6,41.7-30.6
		c23.2,0,41.1,14.8,41.1,30.6C790.7,914.5,767.9,924.4,750,924.4z"/>
</g>
</svg>
