<?xml version="1.0" encoding="utf-8"?>
<!-- Generator: Adobe Illustrator 18.0.0, SVG Export Plug-In . SVG Version: 6.00 Build 0)  -->
<!DOCTYPE svg PUBLIC "-//W3C//DTD SVG 1.1//EN" "http://www.w3.org/Graphics/SVG/1.1/DTD/svg11.dtd">
<svg version="1.1"
	 id="svg2" xmlns:dc="http://purl.org/dc/elements/1.1/" xmlns:cc="http://creativecommons.org/ns#" xmlns:rdf="http://www.w3.org/1999/02/22-rdf-syntax-ns#" xmlns:svg="http://www.w3.org/2000/svg" xmlns:sodipodi="http://sodipodi.sourceforge.net/DTD/sodipodi-0.dtd" xmlns:inkscape="http://www.inkscape.org/namespaces/inkscape" inkscape:output_extension="org.inkscape.output.svg.inkscape" inkscape:version="0.46" sodipodi:docname="Bing logo.svg" sodipodi:version="0.32"
	 xmlns="http://www.w3.org/2000/svg" xmlns:xlink="http://www.w3.org/1999/xlink" x="0px" y="0px" viewBox="0 123.3 595.3 595.3"
	 enable-background="new 0 123.3 595.3 595.3" xml:space="preserve">
<defs>
	
	
		<inkscape:perspective  id="perspective10" inkscape:vp_z="744.09448 : 526.18109 : 1" inkscape:vp_y="0 : 1000 : 0" inkscape:vp_x="0 : 526.18109 : 1" sodipodi:type="inkscape:persp3d" inkscape:persp3d-origin="372.04724 : 350.78739 : 1">
		</inkscape:perspective>
	
		<inkscape:perspective  id="perspective2390" inkscape:vp_z="744.09448 : 526.18109 : 1" inkscape:vp_y="0 : 1000 : 0" inkscape:vp_x="0 : 526.18109 : 1" sodipodi:type="inkscape:persp3d" inkscape:persp3d-origin="372.04724 : 350.78739 : 1">
		</inkscape:perspective>
</defs>
<sodipodi:namedview  showguides="true" showgrid="false" inkscape:cy="120" inkscape:cx="269.55035" inkscape:zoom="0.60860159" objecttolerance="10" guidetolerance="10" gridtolerance="10000" borderopacity="1.0" bordercolor="#666666" pagecolor="#ffffff" id="base" inkscape:window-y="-4" inkscape:window-x="-4" inkscape:window-height="721" inkscape:window-width="1024" inkscape:guide-bbox="true" inkscape:current-layer="layer1" inkscape:document-units="px" inkscape:pageshadow="2" inkscape:pageopacity="0.0">
	</sodipodi:namedview>
<g id="svg2_1_" xmlns:dc="http://purl.org/dc/elements/1.1/" xmlns:cc="http://creativecommons.org/ns#" xmlns:rdf="http://www.w3.org/1999/02/22-rdf-syntax-ns#" xmlns:svg="http://www.w3.org/2000/svg" xmlns:sodipodi="http://sodipodi.sourceforge.net/DTD/sodipodi-0.dtd" xmlns:inkscape="http://www.inkscape.org/namespaces/inkscape" inkscape:output_extension="org.inkscape.output.svg.inkscape" inkscape:version="0.46" sodipodi:docname="Bing logo.svg" sodipodi:version="0.32">
	<defs>
		
		
			<inkscape:perspective  id="perspective10" inkscape:vp_z="744.09448 : 526.18109 : 1" inkscape:vp_y="0 : 1000 : 0" inkscape:vp_x="0 : 526.18109 : 1" sodipodi:type="inkscape:persp3d" inkscape:persp3d-origin="372.04724 : 350.78739 : 1">
			</inkscape:perspective>
		
			<inkscape:perspective  id="perspective2390" inkscape:vp_z="744.09448 : 526.18109 : 1" inkscape:vp_y="0 : 1000 : 0" inkscape:vp_x="0 : 526.18109 : 1" sodipodi:type="inkscape:persp3d" inkscape:persp3d-origin="372.04724 : 350.78739 : 1">
			</inkscape:perspective>
	</defs>
	
		<sodipodi:namedview  showguides="true" showgrid="false" inkscape:cy="120" inkscape:cx="269.55035" inkscape:zoom="0.60860159" objecttolerance="10" guidetolerance="10" gridtolerance="10000" borderopacity="1.0" bordercolor="#666666" pagecolor="#ffffff" id="base" inkscape:window-y="-4" inkscape:window-x="-4" inkscape:window-height="721" inkscape:window-width="1024" inkscape:guide-bbox="true" inkscape:current-layer="layer1" inkscape:document-units="px" inkscape:pageshadow="2" inkscape:pageopacity="0.0">
		</sodipodi:namedview>
</g>
<g>
	<path fill="#2F2F2F" d="M301.5,424.9c4-13,8.1-26,12-38.9c1.1-3.6,2.8-6.7,6.3-8.2c4-1.8,8.1-1.6,11.6,1.3c3.8,3,4.9,7.2,3.4,11.6
		c-7,20.2-14.1,40.4-21.4,60.5c-2,5.5-6.4,8.4-12.5,8.2c-6-0.2-9.8-2.7-11.9-8.9c-3.8-11.1-7.1-22.4-10.8-33.6
		c-0.7-2.1-0.8-4.6-2.7-6.5c-4.1,12.7-8.1,25.3-12.1,37.8c-2.6,7.9-6,11-12.5,11.2c-7,0.2-10.9-2.6-13.7-10.4
		c-6.6-18.7-13.1-37.4-19.6-56.1c-1.7-4.8-2-9.6,2.3-13.4c3.5-3.2,7.7-3.6,12-1.9c4,1.6,5.8,5,6.9,9c3.8,12.8,7.8,25.6,12,39.5
		c4.3-13.9,8.4-26.7,12.3-39.5c1.5-5,4.2-8.6,9.5-9.8c7.1-1.6,13,1.6,15.5,8.9c4,12,7.7,24.1,11.5,36.2
		C300,422.9,300,424,301.5,424.9z"/>
	<path fill="#2F2F2F" d="M384.5,450c-7.3,7.1-15.8,9.6-25.3,9.2c-15-0.5-25.4-9.6-26-23.1c-0.7-14.6,8.2-24.5,23.6-26.7
		c8.5-1.2,16.8-0.9,24.9,1.6c3.8,1.2,3.9-0.1,3.3-3.2c-1.1-6.2-4.7-10-11.3-11.2c-7-1.4-13.9-0.3-20.7,1.4
		c-6.7,1.6-11.5-0.4-13.2-5.6c-1.7-5.4,1.3-10.3,7.9-12.4c11.3-3.6,22.8-4.6,34.4-2.5c15.7,2.9,24.5,13.6,24.9,30.8
		c0.3,12.3,0.1,24.7,0.1,37c0,7.5-2.7,11.5-8.6,13C392.7,459.9,388.1,457.3,384.5,450z"/>
	<path fill="#2F2F2F" d="M503,425.7c3.3,13.7,16.1,19.4,29.7,13.7c2.3-1,4.3-2.5,6.5-3.7c4.4-2.5,9.3-1.6,12,2c3,4,2.6,9.3-1.5,12.5
		c-13.7,10.9-29.2,12.3-45,6.1c-15-5.8-23.1-17.7-24.4-33.6c-1.9-23.3,10.8-41.3,31.5-45.8c23.4-5,45,11.2,46.8,35.1
		c0.7,9.3-3.4,13.7-12.7,13.7C531.7,425.7,517.6,425.7,503,425.7z"/>
	<path fill="#3C3C3C" d="M66,469.4c1.6-6.1-1.4-8.8-6.9-11c-8.1-3.2-14.6-8.9-20-15.8c-4.7-6-2.3-12.2,5.4-13
		c5.9-0.6,8.7-3.7,9.5-9.1c0.7-4.6,1.3-9.2,1.6-13.8c1.8-26.1,16.9-41.7,40.3-50.2c32.4-11.8,69.4,4.5,80.8,35.2
		c9,24,0.1,50.2-22.4,65c-4.4,2.9-8.1,5.3-6.6,11.4c0.3,1.1-0.2,2.5-0.4,3.7c0.2,1-0.1,1.9-0.5,2.8c-0.6,1.4-1.4,2.6-2.5,3.7
		c-3,2.8-6.5,4.6-10.8,4.5c-3.8-0.1-7.3-1.1-10.5-3.2c-0.6-0.4-1.1-1-1.7-1.5c-0.5-0.5-0.9-1.1-1.3-1.7c-0.5-0.8-0.9-1.6-1.3-2.4
		c-0.4-0.8-0.8-1.6-1.1-2.4c-0.5-1-1-2-2.2-2.4c-5.4-0.5-10.7-0.1-16.1-0.2c-1.1,0-2.1,0.1-2.6,1.3c-0.2,0.4-0.3,0.7-0.5,1.1
		c-0.2,0.6-0.4,1.2-0.6,1.7c-0.1,0.4-0.3,0.8-0.5,1.2c-0.4,0.5-0.8,1-1.2,1.5c-0.4,0.5-0.9,1-1.3,1.5c-0.5,0.6-0.9,1.1-1.4,1.6
		c-3.4,3.4-7.6,4.4-12.2,3.8c-3.9-0.9-7.4-2.3-10.1-5.4c-0.5-0.5-1.1-1.1-1.6-1.7c-0.5-0.6-0.9-1.2-1.2-1.9
		C65.7,472.3,66.7,470.8,66,469.4z"/>
	<path fill="#2F2F2F" d="M440,439.5c11.5,0,21.7,0,31.8,0c6.9,0,10.7,3.4,10.8,9.2c0,5.7-3.9,9.2-10.8,9.2c-15.9,0.1-31.8,0-47.7,0
		c-5,0-10-0.5-12.3-5.7c-2.3-5.3-0.2-10.1,3.5-14.2c11.4-12.6,22.8-25.2,34.2-37.7c1-1.1,2-2.4,3.7-4.4c-10.9,0-20.8,0.1-30.8,0
		c-6.4-0.1-10.1-3.6-10-9.3c0.1-5.1,3.7-8.9,9.4-9c16.8-0.2,33.6-0.3,50.4,0.1c9.7,0.2,13.8,8.6,8.4,16.7c-2.8,4.1-6.4,7.7-9.7,11.4
		C460.8,416.7,450.8,427.6,440,439.5z"/>
	<path fill="#DCEAED" d="M146.1,474c0.4-0.7,0.7-1.5,1.1-2.2c5.3,0.1,10.6,0.9,15.8,1.9c3.7,0.8,6.5,3.3,6.4,6.9
		c-0.2,3.7-3.4,5.7-7.1,6.2c-7.7,1.1-15.5,2.1-23.3,2.2c-22.7,0-45.4,0.2-68.1-0.1c-7.1-0.1-14.2-0.4-21.2-2.2
		c-3.5-0.9-7.4-2-7.4-6.4c0-4.5,3.4-6.3,7.5-6.9c3.9-0.5,7.7-1.1,11.6-1.5c2-0.2,4.1,0.2,4.5-2.5c1.2,1.3,1,3,1.2,4.5
		c-1.5,1.8-3.9,1.4-5.8,2.2c-0.6,0.2-1.2,0.3-1.8,0.3c-2.5,0.2-5,0-7.4,1.1c-1.2,0.5-2.4,0.9-2.6,2.4c-0.2,1.6,1.2,2.1,2.3,2.5
		c2.3,1,4.7,1.6,7.2,1.8c10.7,0.6,21.3,1.4,32,1.2c13-0.2,26.1-0.3,39.1,0c6.1,0.1,12-1.2,18.1-1.2c3.6,0.1,7.1,0.2,10.6-1
		c1.8-0.6,4.3-1,4.2-3.4c-0.1-2.3-2.6-2.8-4.4-3.2c-4-0.9-8.1-1.1-12-2.2C146.5,474.4,146.3,474.2,146.1,474z"/>
	<path fill="#FDFDFD" d="M368.1,443.7c-7.3,0-12.1-3.3-12.7-8.8c-0.7-6.4,3.2-10.8,10.8-12c5.5-0.9,11-0.2,16.4,1.5
		c2.6,0.8,3.1,2.2,3.1,4.7C385.6,437.6,378.4,443.7,368.1,443.7z"/>
	<path fill="#FCFCFC" d="M519.6,411.5c-4.6,0-9.3-0.1-13.9,0c-2.2,0.1-3.3-0.4-2.8-3c1.5-7.6,8.4-13.8,16-14.1
		c8.5-0.3,15,4.7,17.1,13.1c0.7,2.9,0.4,4.3-3.1,4.1C528.5,411.3,524.1,411.5,519.6,411.5z"/>
	<path fill="#CFDADF" d="M158.9,442.9c-3.9,4.8-8.9,8-14.2,10.9c-1.3,0.7-2.4,1-3.9,0.1c-6.9-4.2-13.2-2.7-19.2,2
		c-21.3,0.1-41.4-4.7-60.2-14.7c-3-1.6-6.1-3-7.9-6c3-2.2,5-5.3,6.8-8.5c14.1,11.1,30.7,15.2,48,17.9c14.5,2.3,28.7,0.6,43-2.2
		C153.8,441.9,156.5,440.8,158.9,442.9z"/>
	<path fill="#E5EAED" d="M69.9,385.5c1.2-2.9,3.1-5.2,5.5-7.1c1.5,0.9,2.1,2.4,2.5,3.9c4.5,16,16.6,23.6,31.5,27.3
		c16.4,4,31.9,1.5,46-8.1c3-2,5.4-4.6,7.8-7.3c1.3-1.5,2.5-3.2,4.9-1.9c0.6,1.4,1.3,2.8,1.9,4.2c0.6,2.6-1.4,3.8-2.8,5.3
		c-6.6,6.9-14.8,11.4-23.9,13.9c-2.8-0.5-5.2,0.1-6.6,2.9c-0.6,1.3-1.7,2.3-3.1,2.7c-11,1.5-21.7,0-32.4-2.4c-3.1-0.7-4-4.3-7-5.1
		c-9.2-5.6-18.1-11.6-23.1-21.7C70.1,390,68.9,388,69.9,385.5z"/>
	<path fill="#E8EDEF" d="M168.1,392.3c-1.3,0.1-2.4,0.5-3.2,1.7c-7.1,10.1-17.5,15-29.1,17.4c-17,3.5-32.8,0.4-47-10.1
		c-7.9-5.8-11-14.1-13.4-23c2-2.7,4.5-4.9,7.5-6.4c2.2,2.4,1.2,5.4,1.4,8.1c0.7,6.7,2.7,12.5,9.5,15.4c3.2,7.2,3.2,7.2,13.2,6.5
		c7.7,3.9,15.7,3.9,23.8,1.7c3.1-1,6.4-1.2,9.4-2.5c7.9-1.3,13.3-6.1,17.3-12.9c1.3-2.2,2-5,5-5.9
		C165.2,385.3,167.5,388.3,168.1,392.3z"/>
	<path fill="#F3F5F6" d="M109.7,361.1c10.1-2,19.7-0.7,29.1,3.5c8.2,6.3,10.6,13.3,6.7,20.5c-1.8,3.3-4.2,6.1-8.4,6.5
		c-4.6-0.6-7,3.4-10.4,5.1c-7.5,1.4-14.2-1.9-21-3.9c-1.1-0.3-2.1-0.9-2.9-1.7c-7.2-10.7-7.1-18.3,0.2-25.1
		C104.9,364,107.7,363.1,109.7,361.1z"/>
	<path fill="#D3DDE2" d="M158.9,442.9c-8.2,0.4-16.1,2.5-24.2,3.6c-11.4,1.4-22.4,0.4-33.4-1.5c-13.4-2.3-26.2-6.5-37.9-13.9
		c-1.8-1.1-3.4-2-3.1-4.4c0-1.1,0-2.3,1-3.1c2.5-1.5,4.5,0,6.4,1.2c16.8,10.7,35.5,15,55,15.3c11.5,0.1,23.2-1,34.2-5.2
		c2.7-1,5.6-2.8,8.6-0.5C164.1,437.7,161.7,440.5,158.9,442.9z"/>
	<path fill="#D6DFE3" d="M165.6,434.3c-4.1-0.2-7.5,2-11.3,2.9c-30.1,7.7-59,5.4-86.2-10.7c-2.1-1.3-4.2-2.7-6.8-3
		c0.1-2.2,0.1-4.4,1.2-6.4c2.9-1.7,4.6,0.6,6.6,1.9c8.4,5.7,17.5,10,27.5,12.5c2.1,0.5,4.2,0.9,6.3,0.1c1.1-0.1,2.2,0,3.1,0.5
		c7.2,3.7,14.7,2.1,22.2,1.5c4,1.7,8.1,0.4,12.1-0.2c7.6-1.1,15-3.2,22.1-6.1c2.2-0.9,4.5-2.6,6.9-0.4
		C168.6,429.7,167.5,432.2,165.6,434.3z"/>
	<path fill="#D3DCE1" d="M53.5,435.2c8,4.6,16,9.3,24.8,12c8,2.5,16.2,4.5,24.5,6c6.3,1.1,13.1-1.5,18.8,2.7
		c-1.3,3.2-3.6,4.4-7.1,4.1c-3.3-0.3-6.7-0.1-10.1-0.1c-5.3,0-10.3,0.5-14.1-4.9c-2.5-3.6-7.4-3.8-11.8-3.7
		c-8.4-1.6-15.4-6.4-23-9.7c-2.3-1-4.3-2.5-5-5.2C51.6,436,52.6,435.6,53.5,435.2z"/>
	<path fill="#EEF1F3" d="M109.7,361.1c0.1,1.5-1,2.1-2,2.9c-10.8,8.5-11.7,12.8-5.3,24.6c0.3,0.6,0.5,1.3,0.7,2
		c-2.4,1.5-5.1,1.7-7.8,1.8c-1.9-0.2-3.2-1.3-4.4-2.7c-4.6-5.7-4.3-17.7,0.5-23C97.2,363.4,103.2,361.5,109.7,361.1z"/>
	<path fill="#D9E2E6" d="M102.3,432.4c-0.3,1.8-1.2,1.6-2.7,1.3c-11.7-2.4-22.3-7.1-31.9-14c-1.6-1.2-3.2-2.3-5.2-2.5
		c0.1-3.7-0.2-7.4,1-11c7.6,5.2,14.3,11.7,23.1,15.2c2.3,0.9,4.5,2.1,7.1,1.7C97.7,425.1,100.3,428.4,102.3,432.4z"/>
	<path fill="#DAE2E6" d="M169.2,426.9c-7.9,1.1-14.7,5.8-22.7,6.8c-5.2,0.7-10.4,1.8-15.6,2.6c-1.4,0.2-2.3-0.7-3-1.8
		c3.3-3.7,7.3-6.5,12-8.3c8.8,0.1,16.4-3.8,24.1-7.5c2.5-1.2,4.7-3.4,7.8-2.6C171.8,419.9,170.9,423.5,169.2,426.9z"/>
	<path fill="#DEE5E8" d="M93.8,423.3c-0.6,1.1-1.7,1.6-2.7,1.2c-10.4-4.3-20.5-9.2-27.6-18.4c-0.1-4.1,0.2-8.1,2.2-11.7
		c2.5,1.5,3.6,4.3,5.4,6.4c5.9,6.5,12.6,11.8,20.9,14.9C94.1,417.9,94.4,420.5,93.8,423.3z"/>
	<path fill="#DEE5E9" d="M171.9,416.1c-8.6,4.6-17.2,9.3-26.9,11.3c-1.9,0.4-3.8,1.1-5.3-0.9c-0.4-3.8,1.5-6.5,4.2-8.7
		c7.9-0.4,14.5-4,20.8-8.5c2.1-1.5,3.9-4.3,7.3-2.9C172.7,409.6,172.4,412.9,171.9,416.1z"/>
	<path fill="#E2E8EB" d="M91.7,416.1c-12.2-3-20.2-11-26-21.7c0.1-3.6,2.2-6.2,4.2-8.9c2.8,9.7,9.1,16.7,17.2,22.3
		c2.6,1.8,5.3,3.5,8,5.2C94.8,415,93.3,415.6,91.7,416.1z"/>
	<path fill="#ECF0F2" d="M162.6,382.4c-4.1,6.6-7.1,13.9-14.7,17.7c-2.5,1.2-4.7,2.4-7.5,1.9c-0.7-2.8-0.4-5.6,0.2-8.4
		c7-3.1,11-8.2,10.8-16.1c-0.1-1.7-0.2-3.6,1.3-5C156.7,375.1,160.1,378.3,162.6,382.4z"/>
	<path fill="#A3C8D2" d="M68.2,475c0.3,0.4,0.6,0.7,1,1.1c-1.8,3.9-0.4,5.3,3.7,5.8c5.3,0.7,10.6,0.5,15.9,0.4
		c16.5-0.2,33.1-0.1,49.6,0.3c0.7,0,1.4,0.3,2,0.6c0.6,0.4,0.8,1,0.6,1.7c-1.3,1.3-3,0.9-4.6,1c-5.2,0.2-10.4-0.5-15.5,0.5
		c-18.4-0.3-36.8,0.9-55.1-1c-2.4-0.6-4.9-0.6-7.4-0.5c-2-0.4-4.2-0.1-6-1.3c-2.7-3.3-0.9-5.3,2.1-6.9c1.8-0.4,3.7-0.8,5.5-1
		c2.2-0.3,4.4-0.7,6.7-0.6C67.3,475.1,67.8,475,68.2,475z"/>
	<path fill="#D7DFE3" d="M50.7,436.4c7,5.4,15,8.8,23.1,12.2c1.7,0.7,4,0.6,4.8,2.8c-3.6,0.3-6.2,4.6-10.3,3
		c-8.9-3.4-16.9-8.3-23.1-16.4C47.2,437.5,49,437,50.7,436.4z"/>
	<path fill="#F0F3F4" d="M152.7,372.4c0.6,7.7-0.1,14.8-6.9,20.1c-1.7,1.3-3,2.4-5.1,1.1c-2.3,0.1-3.9-0.7-4.3-3.2
		c8.5-1.8,12.2-11.8,7-19.3c-1.5-2.2-3.2-4.3-4.7-6.5C144.3,365.6,148.2,369.7,152.7,372.4z"/>
	<path fill="#E3E9EC" d="M172,406.4c-4,0.9-6.5,4.1-9.8,6.2c-4.4,2.8-9.2,4.6-14.1,6.2c-1.6,0.5-3.1,0.7-4.2-1
		c-0.9-0.8-1.8-1.6-0.8-2.9c10.3-4.2,20.1-8.9,26.8-18.4C172.1,399.6,170.7,403.3,172,406.4z"/>
	<path fill="#EAEEF1" d="M91.6,366.7c-2.4,6.8-3.7,13.7-0.4,20.6c1,2.2,2.4,3.9,5.1,4.2c0,2-0.6,3.5-2.7,4.1c-2.9,2-4.4-0.4-5.5-2.1
		c-3-4.6-5.9-9.3-5.1-15.2c0.3-2.1,0-4.2,0-6.4C85.4,369.5,88.3,367.8,91.6,366.7z"/>
	<path fill="#6799A5" d="M140.9,483.7c-20.7,0-41.4,0-62.1,0.1c-3.6,0-7.1-0.4-10.6-1.1c-1.6-0.3-3.6-0.3-4-2
		c-0.5-2.3,1.9-2,3.2-2.7c0.7-0.5,1.2-1.2,1.8-1.9c2.6,2.9,5.8,4.6,9.5,5.6c4.9,1.6,9.6-1.1,14.4-0.6c9.3,0,18.6-0.1,28,0
		c4.2-0.7,8.2,1.9,12.4,0.6c4.1,0,7.3-2,10.4-4.4c0.3,0,0.6,0,0.8,0c2.3-0.2,4.4,0,5.2,2.5c0.6,2-0.9,2.8-2.4,3.6
		C145.3,483.9,143.2,484.6,140.9,483.7z"/>
	<path fill="#A5CAD3" d="M140.9,483.7c2-1.2,4.2-1,6.4-1.1c1.6-0.9,3.7-0.8,5-2.3c-2.2-2.5-5.3-2.1-8-3.1l-0.3,0
		c0,0-0.3,0.1-0.3,0.1c0.8-1.1,1.6-2.1,2.3-3.2c0,0,0.4,0,0.4,0c3.4,1.8,7.3,1,10.8,2.1c2.1,0.6,4.4,1.1,4.6,3.7
		c0.3,3-2.2,3.6-4.5,4.3c-2.7,0.8-5.5,1.2-8.3,1.3c-2.7-0.3-5.6,0.6-8.2-0.5C140.9,484.4,140.9,484.1,140.9,483.7z"/>
	<path fill="#505151" d="M85.1,466.7c0.1,2.4-0.8,4.1-3.9,4.1c-3,0-4.4-2-4.3-4.4c0.1-2.5,1.6-5.1,4.5-5
		C84.1,461.5,85.2,463.8,85.1,466.7z"/>
	<path fill="#505151" d="M129.1,467.3c0-3.5,0.9-5.9,4-5.9c2.6,0,4,2.6,4.2,4.8c0.2,2.4-1.1,4.4-4,4.6
		C130.3,470.9,129,469.5,129.1,467.3z"/>
	<path fill="#F8FBFB" d="M96.9,467.7c6.9-0.1,13.8-1,20.6,0.6c0.4,0.7,0.3,1.3-0.3,1.9c-6,2-12.1,1-18.2,0.7
		C97.4,470.8,95.9,469.8,96.9,467.7z"/>
	<path fill="#478392" d="M92.5,482.6c-4.6-0.5-9.4,1.2-13.9-0.9c4.9,0.2,9.2-1,12.9-4.3c1.3-0.1,2.5-0.1,3.6,0.6
		c0.6,0.5,1.1,1.1,1.2,1.9C96.6,482.9,93.7,481.5,92.5,482.6z"/>
	<path fill="#468391" d="M133.4,481.7c-3.8,1.9-7.8,0.4-11.7,0.8c-1.3-1-4.3,0.3-3.8-3c0.3-0.8,0.9-1.4,1.7-1.8
		c1.2-0.3,2.2-0.1,3.2,0.6C126.1,480.1,129.5,481.6,133.4,481.7z"/>
	<path fill="#6BA8B7" d="M122.8,478.3c-1.1,0-2.2,0-3.2,0.1c-8.3,2.3-16.6,2.3-24.8,0c-1.1-0.1-2.4,0.2-3.1-1c0.4-0.3,0.7-0.7,1.1-1
		c9.7-0.5,19.4-1.9,29,0.9C122.1,477.6,122.4,478,122.8,478.3z"/>
	<path fill="#7EB3C0" d="M121.7,477.2c-8.2,0-16.3,0-24.5,0c-1.5,0-3.2,0.5-4.5-0.9c0.3-0.4,0.6-0.8,1-1.2
		c7.4-0.8,14.8-0.3,22.1-0.4c1.8,0,3.5,0.4,5,1.4C121.1,476.5,121.4,476.9,121.7,477.2z"/>
	<path fill="#93BEC9" d="M120.8,476.1c-7.6,0-15.2,0.1-22.7,0.1c-1.5,0-3.2,0.4-4.4-1.1c0.3-0.4,0.5-0.8,0.8-1.2
		c8.4-0.3,16.7-0.6,25.1,0.1C119.9,474.7,120.3,475.4,120.8,476.1z"/>
	<path fill="#ACCDD4" d="M119.5,474c-8.4,1.8-16.7,2-25.1-0.1c0,0,0.2,0,0.2,0c3.4-2.3,7.3-1.1,10.9-1.3c3.7-0.2,7.5,0.2,11.2-0.3
		c0.3-0.1,0.6-0.2,0.9-0.2c0.3-0.1,0.6-0.1,0.9-0.2C118.8,472.6,119.1,473.3,119.5,474z"/>
	<path fill="#C2D9DF" d="M118.2,472.9c-4,2.4-8.3,0.8-12.4,1.1c-3.7,0.2-7.5,0-11.3-0.1c0.4-1.1,0.8-2.1,1.2-3.2
		c0.6,0.2,1.2,0.3,1.7,0.5c4.9,0.5,9.8,0.1,14.8,0.2C114.3,471.6,116.5,471.3,118.2,472.9z"/>
	<path fill="#E3EDEF" d="M96,471.8c-0.1-0.4-0.2-0.7-0.2-1.1c0,0,0.1,0.1,0.1,0.1c5.2-1.2,10.5-0.2,15.7-0.5
		c1.9-0.1,3.9,0.6,5.6-0.6c0.1-0.5,0.2-0.9,0.4-1.4c0.3,1.2,0.6,2.4,0.9,3.6c0,0-0.4,0-0.4,0C110.7,472.7,103.3,472.8,96,471.8z"/>
	<path fill="#EFF5F6" d="M117.1,469.7c-4.6,2.4-9.6,0.6-14.4,1.1c-2.3,0.2-4.6,0-6.9,0c0.2-1.1-0.6-2.6,1.1-3.2
		c0.4,2.6,2.5,2.1,4.2,2.1C106.4,469.8,111.8,469.7,117.1,469.7z"/>
	<path fill="#BDD7DE" d="M61.5,475.1c1.6-1.8,3.8-0.8,5.7-1.1c0.3,0.3,0.7,0.7,1,1c0,0-0.5,0.2-0.5,0.2
		C65.7,475.9,63.6,476,61.5,475.1z"/>
	<path fill="#BDD7DE" d="M140.9,484.8c2.9,0,5.7,0,8.6,0c0.4,0.2,0.5,0.5,0.4,0.7c-0.1,0.2-0.2,0.4-0.4,0.4
		c-24.8,2.1-49.6,0.9-74.3,0.9c-7.2,0-14.6-0.3-21.7-2.1c-2.6-0.7-6.6-1.2-6.5-4.4c0.2-3.3,4-4.3,6.9-4.9c2.1-0.4,4.3-0.2,6.4-0.2
		c0.4,0.2,0.5,0.5,0.4,0.7c-0.1,0.2-0.2,0.4-0.4,0.4c-1.8,0.4-3.6,0.7-5.4,1.1c-2,1.3-6.7,1.4-2.2,5.4c1.5,1.8,3.6,0.8,5.4,1.1
		c2,1.4,4.5-0.3,6.5,1.1c18.9,1.5,37.9,1.1,56.9,1.1c4.9-1.4,10.1,0.5,15.1-1C138.1,484.8,139.5,484.8,140.9,484.8z"/>
	<path fill="#C6DEE3" d="M149.5,485.9c0-0.4,0-0.7,0-1.1c3.1-0.7,6.1-1.4,9.2-2.2c1.3-0.3,2.3-1,2.4-2.4c0.1-1.6-1.2-2.1-2.3-2.5
		c-2.1-0.7-4.3-1.6-6.6-1.5c-2.1,0.1-4.3,0-5.6-2.1c5.3,0.1,10.6,0.4,15.5,2.6c1.6,0.7,3.6,1.3,3.3,3.6c-0.2,2-1.8,3-3.5,3.7
		C158,485.5,153.8,486.2,149.5,485.9z"/>
	<path fill="#B5D3DB" d="M60.4,476.2c0-0.4,0-0.7,0-1.1c0.4,0,0.7,0,1.1,0c2.1,0,4.2,0,6.3,0C65.6,477.2,62.8,475.8,60.4,476.2z"/>
	<path fill="#3C3C3C" d="M143.2,415c0.3,1,0.5,1.9,0.8,2.9c-1.4,2.9-2.8,5.8-4.2,8.6c-3.5,3.2-7.3,6-11.7,8
		c-8.9,2.8-17.5,1.8-25.8-2.1c-3.2-2.6-5.9-5.7-8.5-9c-0.7-2.4-1.4-4.8-2.1-7.3c1.1-1,2.2-2.1,3.4-3.1c3.3,0.2,3.9,3,5.3,5.2
		c1.2,0.5,1.9,1.5,2.8,2.4c6.9,7.6,16.6,8.9,25.4,3.5c1.9-1.2,3.9-2.5,5.7-3.8c0.7-1.2,1.5-2.4,2-3.6
		C137.7,412.9,140.2,413,143.2,415z"/>
	<path fill="#DFE6E9" d="M134.2,420.3c-9,12.1-27.6,10.9-33.9-2.2c3.4-1.7,6.5,0.6,9.6,1.2C118,420.7,126.1,420.3,134.2,420.3z"/>
	<path fill="#3E3E3E" d="M136.5,390.3c1.4,1.1,2.8,2.2,4.3,3.2c1.2,2.8,0.6,5.6-0.4,8.4c-2.5,2.8-5.8,2.8-9.2,2.5
		c-4.4,0.6-3.9-3.3-5.1-5.6c-0.2-1.2-0.1-2.3,1-3.1C129.1,391.8,132.1,389.8,136.5,390.3z"/>
	<path fill="#3D3D3D" d="M93.5,395.7c0.9-1.4,1.8-2.7,2.7-4.1c2.3-0.8,4.5-1.7,7-0.9c0.4,0.8,1.2,0.8,2,0.8c2.1,0.8,3.1,2.4,3.6,4.5
		c0.2,2.4,0.5,4.8-2.2,6.2c-2.8,2.4-5.9,3.4-9.3,1.7C94,402.2,93.4,399,93.5,395.7z"/>
	<path fill="#ECF0F2" d="M106.6,402.1c1.1-2,1.3-4.2,1.3-6.4c3.3,2,6.6,3.7,10.5,4.4c3.2,0.5,5.9,0.5,8.6-1.3
		c1.5,1.8,1.3,4.9,4.2,5.7C126.8,408.5,110.1,407,106.6,402.1z"/>
	<path fill="#F5F7F8" d="M123.7,390.3c-3.9,0.4-7.5-1-11-2.9c-6.5-3.5-7.6-10.4-2.6-16.1c5.9-6.7,21.8-6.4,27,0.9
		c1.9,2.6,3.8,5.5,1.9,9.4c-2.4,4.9-6.2,7.7-11.3,8.7C126.4,390.5,125.1,390.3,123.7,390.3z"/>
	<path fill="#EFF2F4" d="M127,398.8c-0.1,1.3-0.5,2.4-1.8,3c-3.8,1.8-15.4-2.3-17.4-6c-0.9-1.4-1.8-2.8-2.7-4.2
		c7.3,1.5,14.2,5.1,22,4.2C127.1,396.7,127.1,397.7,127,398.8z"/>
	<path fill="#A5CAD3" d="M136.7,484.8c-4.9,2.2-10,0.5-15.1,1C126.5,483.6,131.7,485.3,136.7,484.8z"/>
	<path fill="#B5D3DB" d="M52.9,482.6c-1.7-0.2-3.4-0.9-3-2.8c0.6-2.5,3-2.5,5.1-2.6C53.6,478.8,50.7,479.7,52.9,482.6z"/>
	<path fill="#B5D3DB" d="M64.7,484.8c-2.2-0.3-4.6,0.9-6.5-1.1C60.4,484,62.8,482.9,64.7,484.8z"/>
	<path fill="#539CAF" d="M118.4,479.4c-0.2,2.4,2.4,1.8,3.3,3.1c-9.7,0-19.4,0-29.2,0c0.9-1.3,3.5-0.8,3.3-3.1
		C103.3,478.5,110.9,478.5,118.4,479.4z"/>
	<path fill="#8CBCC8" d="M144.4,477.2c2.8-0.1,5.6,0.4,8.3,1.1c1.2,0.3,2.7,0.4,2.7,2c0,1.7-1.8,1.5-2.8,1.8
		c-1.7,0.5-3.5,0.4-5.2,0.5C152.8,477.3,144.6,479.4,144.4,477.2z"/>
	<path fill="#5AA0B1" d="M118.4,479.4c-7.5,0-15,0-22.6,0c-0.4-0.3-0.8-0.7-1.1-1c8.3,0,16.6,0,24.8,0
		C119.1,478.7,118.8,479.1,118.4,479.4z"/>
	<path fill="#D7E7EB" d="M96,471.8c7.3,0,14.7,0,22,0c0.1,0.3,0.2,0.6,0.2,1c-6.2,0-12.3,0.1-18.5,0.1C98.4,473,96.9,473.4,96,471.8
		z"/>
	<path fill="#F8F9FA" d="M123.6,371c5.6,0.1,9.7,2.9,9.8,6.9c0.1,4.6-4.6,8.3-10.6,8.1c-5.5-0.1-9.7-3.5-9.8-7.8
		C112.9,373.8,117.2,370.9,123.6,371z"/>
</g>
</svg>
