<?xml version="1.0" encoding="utf-8"?>
<!-- Generator: Adobe Illustrator 18.0.0, SVG Export Plug-In . SVG Version: 6.00 Build 0)  -->
<!DOCTYPE svg PUBLIC "-//W3C//DTD SVG 1.1//EN" "http://www.w3.org/Graphics/SVG/1.1/DTD/svg11.dtd">
<svg version="1.1"
	 id="svg2" xmlns:dc="http://purl.org/dc/elements/1.1/" xmlns:cc="http://creativecommons.org/ns#" xmlns:rdf="http://www.w3.org/1999/02/22-rdf-syntax-ns#" xmlns:svg="http://www.w3.org/2000/svg" xmlns:sodipodi="http://sodipodi.sourceforge.net/DTD/sodipodi-0.dtd" xmlns:inkscape="http://www.inkscape.org/namespaces/inkscape" inkscape:output_extension="org.inkscape.output.svg.inkscape" inkscape:version="0.46" sodipodi:docname="Bing logo.svg" sodipodi:version="0.32"
	 xmlns="http://www.w3.org/2000/svg" xmlns:xlink="http://www.w3.org/1999/xlink" x="0px" y="0px" viewBox="0 123.3 595.3 595.3"
	 enable-background="new 0 123.3 595.3 595.3" xml:space="preserve">
<defs>
	
	
		<inkscape:perspective  id="perspective10" inkscape:vp_z="744.09448 : 526.18109 : 1" inkscape:vp_y="0 : 1000 : 0" inkscape:vp_x="0 : 526.18109 : 1" sodipodi:type="inkscape:persp3d" inkscape:persp3d-origin="372.04724 : 350.78739 : 1">
		</inkscape:perspective>
	
		<inkscape:perspective  id="perspective2390" inkscape:vp_z="744.09448 : 526.18109 : 1" inkscape:vp_y="0 : 1000 : 0" inkscape:vp_x="0 : 526.18109 : 1" sodipodi:type="inkscape:persp3d" inkscape:persp3d-origin="372.04724 : 350.78739 : 1">
		</inkscape:perspective>
</defs>
<sodipodi:namedview  showguides="true" showgrid="false" inkscape:cy="120" inkscape:cx="269.55035" inkscape:zoom="0.60860159" objecttolerance="10" guidetolerance="10" gridtolerance="10000" borderopacity="1.0" bordercolor="#666666" pagecolor="#ffffff" id="base" inkscape:window-y="-4" inkscape:window-x="-4" inkscape:window-height="721" inkscape:window-width="1024" inkscape:guide-bbox="true" inkscape:current-layer="layer1" inkscape:document-units="px" inkscape:pageshadow="2" inkscape:pageopacity="0.0">
	</sodipodi:namedview>
<g id="svg2_1_" xmlns:dc="http://purl.org/dc/elements/1.1/" xmlns:cc="http://creativecommons.org/ns#" xmlns:rdf="http://www.w3.org/1999/02/22-rdf-syntax-ns#" xmlns:svg="http://www.w3.org/2000/svg" xmlns:sodipodi="http://sodipodi.sourceforge.net/DTD/sodipodi-0.dtd" xmlns:inkscape="http://www.inkscape.org/namespaces/inkscape" inkscape:output_extension="org.inkscape.output.svg.inkscape" inkscape:version="0.46" sodipodi:docname="Bing logo.svg" sodipodi:version="0.32">
	<defs>
		
		
			<inkscape:perspective  id="perspective10" inkscape:vp_z="744.09448 : 526.18109 : 1" inkscape:vp_y="0 : 1000 : 0" inkscape:vp_x="0 : 526.18109 : 1" sodipodi:type="inkscape:persp3d" inkscape:persp3d-origin="372.04724 : 350.78739 : 1">
			</inkscape:perspective>
		
			<inkscape:perspective  id="perspective2390" inkscape:vp_z="744.09448 : 526.18109 : 1" inkscape:vp_y="0 : 1000 : 0" inkscape:vp_x="0 : 526.18109 : 1" sodipodi:type="inkscape:persp3d" inkscape:persp3d-origin="372.04724 : 350.78739 : 1">
			</inkscape:perspective>
	</defs>
	
		<sodipodi:namedview  showguides="true" showgrid="false" inkscape:cy="120" inkscape:cx="269.55035" inkscape:zoom="0.60860159" objecttolerance="10" guidetolerance="10" gridtolerance="10000" borderopacity="1.0" bordercolor="#666666" pagecolor="#ffffff" id="base" inkscape:window-y="-4" inkscape:window-x="-4" inkscape:window-height="721" inkscape:window-width="1024" inkscape:guide-bbox="true" inkscape:current-layer="layer1" inkscape:document-units="px" inkscape:pageshadow="2" inkscape:pageopacity="0.0">
		</sodipodi:namedview>
</g>
<g>
	<g>
		<path fill="#CC0000" d="M26.5,414.1c-1.6-4.4-2.7-7.1-3.1-10.8c0-5,3.4-9.1,9.9-9.1c4.4,0,7.8,2.4,9.1,6.8l9.4,31.1h0.3l8.4-26.7
			c1.6-5,3.4-10.8,10.2-10.8c6.8,0,8.8,5.7,10.2,10.8l8.4,26.7h0.3l9.4-31.1c1.3-4.4,4.4-6.8,9.1-6.8c6.5,0,9.9,4.1,9.9,9.1
			c-0.3,3.4-1.3,6.5-3.1,10.8l-13.2,37.3c-2.4,6.1-5.4,9.4-11.8,9.4c-6.8,0-9.1-3.7-11.5-10.2l-7.5-22.4h-0.3l-7.5,22.7
			c-2.4,6.5-4.4,10.2-11.5,10.2c-6.5,0-9.9-3.1-11.8-9.4L26.5,414.1z"/>
		<path fill="#CC0000" d="M131,365.6c6.1,0,11.5,5,11.5,11.5s-5,11.5-11.5,11.5c-6.1,0-11.5-5-11.5-11.5S124.9,365.6,131,365.6z
			 M121.5,404.2c0-5.4,4.1-9.9,9.4-9.9c5.7,0,9.4,4.4,9.4,9.9v46.7c0,5.4-4.1,9.9-9.4,9.9c-5.7,0-9.4-4.4-9.4-9.9
			C121.5,450.9,121.5,404.2,121.5,404.2z"/>
		<path fill="#CC0000" d="M148.9,375.8c0-5.4,4.1-9.9,9.4-9.9c5.7,0,9.4,4.4,9.4,9.9v40.7l15.6-15.6c3.4-3.4,6.1-6.8,10.8-6.8
			c5.7,0,9.4,4.1,9.4,8.8c0,3.4-2.4,5.7-6.8,10.2l-10.2,10.2l16.1,20.2c2.1,2.4,4.4,5.7,4.4,8.4c0,3.7-2.7,8.8-9.4,8.8
			c-4.4,0-6.5-1.3-10.5-6.5l-19.3-25h-0.3v21.7c0,5.4-4.1,9.9-9.4,9.9c-5.7,0-9.4-4.4-9.4-9.9v-75.1L148.9,375.8L148.9,375.8z"/>
		<path fill="#CC0000" d="M219.7,365.6c6.1,0,11.5,5,11.5,11.5s-5,11.5-11.5,11.5c-6.1,0-11.5-5-11.5-11.5S213.2,365.6,219.7,365.6z
			 M209.8,404.2c0-5.4,4.1-9.9,9.4-9.9c5.7,0,9.4,4.4,9.4,9.9v46.7c0,5.4-4.1,9.9-9.4,9.9c-5.7,0-9.4-4.4-9.4-9.9V404.2z"/>
		<path fill="#CC0000" d="M237.5,404.2c0-5.4,4.1-9.9,9.4-9.9c5,0,8.4,3.4,9.4,6.1c3.1-4.7,9.4-7.5,16.5-7.5c5.4,0,13.2,2.1,18,7.8
			c4.4-3.4,10.2-7.8,18.6-7.8c13.2,0,23.7,6.8,23.7,22.7v35.5c0,5.4-4.1,9.9-9.4,9.9c-5.7,0-9.4-4.4-9.4-9.9v-30.1
			c0-6.1-3.4-11.5-9.4-11.5c-6.1,0-9.4,5.4-9.4,11.5v30.1c0,5.4-4.1,9.9-9.4,9.9c-5.7,0-9.4-4.4-9.4-9.9v-30.1
			c0-6.1-3.4-11.5-9.4-11.5c-6.1,0-9.4,5.4-9.4,11.5v30.1c0,5.4-4.1,9.9-9.4,9.9c-5.7,0-9.4-4.4-9.4-9.9v-47L237.5,404.2
			L237.5,404.2z"/>
		<path fill="#CC0000" d="M403.7,450.9c0,5.4-4.1,9.9-9.4,9.9c-4.7,0-7.5-3.1-8.8-6.1c-4.4,5.4-9.1,7.5-16.5,7.5
			c-16.5,0-29.5-15.2-29.5-34.5c0-19.3,12.8-34.5,29.5-34.5c7.1,0,12.2,2.1,16.5,7.5c1.3-3.1,4.4-6.1,8.8-6.1c5.7,0,9.4,4.4,9.4,9.9
			V450.9z M358.4,427.6c0,8.8,4.7,16.2,13.2,16.2s13.2-7.5,13.2-16.2s-4.7-16.2-13.2-16.2S358.4,418.8,358.4,427.6z"/>
		<path fill="#CC0000" d="M411.8,404.2c0-5.4,4.1-9.9,9.4-9.9c4.7,0,7.5,3.1,8.8,6.1c4.4-5.4,9.1-7.5,16.5-7.5
			c16.5,0,29.5,15.2,29.5,34.5s-12.7,34.5-29.4,34.5c-8.1,0-12.5-2.7-15.9-5.4v20.6c0,5.4-4.1,9.9-9.4,9.9c-5.7,0-9.4-4.4-9.4-9.9
			v-73.1H411.8z M457.1,427.6c0-8.8-4.7-16.2-13.2-16.2s-13.2,7.5-13.2,16.2s4.7,16.2,13.2,16.2
			C452.8,443.8,457.1,436.3,457.1,427.6z"/>
		<path fill="#CC0000" d="M492,365.6c6.1,0,11.5,5,11.5,11.5s-5,11.5-11.5,11.5c-6.1,0-11.5-5-11.5-11.5S485.6,365.6,492,365.6z
			 M482.2,404.2c0-5.4,4.1-9.9,9.4-9.9c5.7,0,9.4,4.4,9.4,9.9v46.7c0,5.4-4.1,9.9-9.4,9.9c-5.7,0-9.4-4.4-9.4-9.9V404.2z"/>
		<path fill="#CC0000" d="M571.9,450.9c0,5.4-4.1,9.9-9.4,9.9c-4.7,0-7.5-3.1-8.8-6.1c-4.4,5.4-9.1,7.5-16.5,7.5
			c-16.5,0-29.5-15.2-29.5-34.5c0-19.3,12.8-34.5,29.4-34.5c7.1,0,12.2,2.1,16.5,7.5c1.3-3.1,4.4-6.1,8.8-6.1c5.7,0,9.4,4.4,9.4,9.9
			v46.7H571.9z M526.5,427.6c0,8.8,4.7,16.2,13.2,16.2c8.4,0,13.2-7.5,13.2-16.2s-4.7-16.2-13.2-16.2
			C530.9,411.3,526.5,418.8,526.5,427.6z"/>
	</g>
</g>
</svg>
