<?xml version="1.0" encoding="utf-8"?>
<!-- Generator: Adobe Illustrator 18.0.0, SVG Export Plug-In . SVG Version: 6.00 Build 0)  -->
<!DOCTYPE svg PUBLIC "-//W3C//DTD SVG 1.1//EN" "http://www.w3.org/Graphics/SVG/1.1/DTD/svg11.dtd">
<svg version="1.1"
	 id="svg2" xmlns:dc="http://purl.org/dc/elements/1.1/" xmlns:cc="http://creativecommons.org/ns#" xmlns:rdf="http://www.w3.org/1999/02/22-rdf-syntax-ns#" xmlns:svg="http://www.w3.org/2000/svg" xmlns:sodipodi="http://sodipodi.sourceforge.net/DTD/sodipodi-0.dtd" xmlns:inkscape="http://www.inkscape.org/namespaces/inkscape" sodipodi:version="0.32" sodipodi:docname="Bing logo.svg" inkscape:version="0.46" inkscape:output_extension="org.inkscape.output.svg.inkscape"
	 xmlns="http://www.w3.org/2000/svg" xmlns:xlink="http://www.w3.org/1999/xlink" x="0px" y="0px" viewBox="0 123.3 595.3 595.3"
	 enable-background="new 0 123.3 595.3 595.3" xml:space="preserve">
<defs>
	
	
		<inkscape:perspective  sodipodi:type="inkscape:persp3d" inkscape:vp_x="0 : 526.18109 : 1" inkscape:vp_y="0 : 1000 : 0" inkscape:vp_z="744.09448 : 526.18109 : 1" id="perspective10" inkscape:persp3d-origin="372.04724 : 350.78739 : 1">
		</inkscape:perspective>
	
		<inkscape:perspective  sodipodi:type="inkscape:persp3d" inkscape:vp_x="0 : 526.18109 : 1" inkscape:vp_y="0 : 1000 : 0" inkscape:vp_z="744.09448 : 526.18109 : 1" id="perspective2390" inkscape:persp3d-origin="372.04724 : 350.78739 : 1">
		</inkscape:perspective>
</defs>
<sodipodi:namedview  pagecolor="#ffffff" bordercolor="#666666" borderopacity="1.0" gridtolerance="10000" guidetolerance="10" objecttolerance="10" inkscape:zoom="0.60860159" inkscape:cx="269.55035" inkscape:cy="120" showgrid="false" showguides="true" id="base" inkscape:pageopacity="0.0" inkscape:pageshadow="2" inkscape:document-units="px" inkscape:current-layer="layer1" inkscape:guide-bbox="true" inkscape:window-width="1024" inkscape:window-height="721" inkscape:window-x="-4" inkscape:window-y="-4">
	</sodipodi:namedview>
<g id="svg2_1_" xmlns:dc="http://purl.org/dc/elements/1.1/" xmlns:cc="http://creativecommons.org/ns#" xmlns:rdf="http://www.w3.org/1999/02/22-rdf-syntax-ns#" xmlns:svg="http://www.w3.org/2000/svg" xmlns:sodipodi="http://sodipodi.sourceforge.net/DTD/sodipodi-0.dtd" xmlns:inkscape="http://www.inkscape.org/namespaces/inkscape" sodipodi:version="0.32" sodipodi:docname="Bing logo.svg" inkscape:version="0.46" inkscape:output_extension="org.inkscape.output.svg.inkscape">
	<defs>
		
		
			<inkscape:perspective  sodipodi:type="inkscape:persp3d" inkscape:vp_x="0 : 526.18109 : 1" inkscape:vp_y="0 : 1000 : 0" inkscape:vp_z="744.09448 : 526.18109 : 1" id="perspective10" inkscape:persp3d-origin="372.04724 : 350.78739 : 1">
			</inkscape:perspective>
		
			<inkscape:perspective  sodipodi:type="inkscape:persp3d" inkscape:vp_x="0 : 526.18109 : 1" inkscape:vp_y="0 : 1000 : 0" inkscape:vp_z="744.09448 : 526.18109 : 1" id="perspective2390" inkscape:persp3d-origin="372.04724 : 350.78739 : 1">
			</inkscape:perspective>
	</defs>
	
		<sodipodi:namedview  pagecolor="#ffffff" bordercolor="#666666" borderopacity="1.0" gridtolerance="10000" guidetolerance="10" objecttolerance="10" inkscape:zoom="0.60860159" inkscape:cx="269.55035" inkscape:cy="120" showgrid="false" showguides="true" id="base" inkscape:pageopacity="0.0" inkscape:pageshadow="2" inkscape:document-units="px" inkscape:current-layer="layer1" inkscape:guide-bbox="true" inkscape:window-width="1024" inkscape:window-height="721" inkscape:window-x="-4" inkscape:window-y="-4">
		</sodipodi:namedview>
</g>
<g id="Layer_2">
	<g id="g10" transform="matrix(1.25,0,0,-1.25,-193.46271,442.73946)">
		<path id="path38" fill="#010202" d="M369,85.9c-9.3,0-18.8-6.8-18.8-6.8v4.3c0,0.9-0.3,1.2-1.2,1.2h-11.7c-0.9,0-1.5-0.6-1.5-1.2
			V-8.2c0-0.9,0.3-1.5,1.2-1.5h11.7c0.6,0,1.2,0.6,1.2,1.5v78.4c0,0,5.6,3.4,12.4,3.4c6.5,0,11.4-3.1,11.4-9.6c0-4.6,0-72.2,0-72.2
			c0-0.9,0.6-1.5,1.5-1.5h11.7c0.9,0,1.2,0.6,1.2,1.5V68C388.4,79.7,381.3,85.9,369,85.9z"/>
		<path id="path40" fill="#010202" d="M459.7,131.9H448c-0.9,0-1.5-0.6-1.5-1.2V84.4c-4.6,1.9-8.6,2.8-11.7,2.8
			c-18.8,0-32.1-18.2-32.1-53.1c0-29.9,12.7-46,29.3-46c7.1,0,12.7,4,17,7.7l2.5-4.3c0.3-0.6,0.9-0.9,1.5-0.9h6.8
			c0.6,0,1.2,0.6,1.2,1.5v138.6C461.3,131.6,460.7,131.9,459.7,131.9L459.7,131.9z M418,37.1c0,19.1,5.6,38.3,17,38.3
			c4,0,7.7-1.2,11.4-4.3V3.2c-2.8-1.5-6.5-3.1-10.5-3.1C423.6,0.4,418,15.2,418,37.1z"/>
		<path id="path42" fill="#010202" d="M504.5,86.8c-19.5,0-29-25.6-29-53.1c0-29,13.6-45.4,31.2-45.4c7.7,0,15.4,3.1,20.4,5.9
			c0.9,0.3,0.9,0.9,0.6,1.9l-1.5,6.2c-0.3,0.6-0.6,1.2-1.5,1.2c-0.3,0-6.8-1.9-13-1.9c-14.5,0-21,13-21,29.9c0,2.2,0,4,0,4
			s7.1-0.9,11.4-0.9h27.2v7.7C529.8,71.4,519.6,86.8,504.5,86.8L504.5,86.8z M503.6,46.1c-4.3,0-12-0.9-12-0.9s0,3.1,0.6,6.2
			c1.5,16.1,5.6,24.1,12,24.1c5.6,0,9.6-8.3,10.5-22.5c0.3-3.1,0.3-6.5,0.3-6.5L503.6,46.1L503.6,46.1L503.6,46.1z"/>
		<path id="path44" fill="#010202" d="M313.4,75.1c-4.3,8.6-12,12.4-20.7,12.4c-5.6,0-14.5-2.2-20.4-4.9c-1.2-0.6-1.9-0.9-1.9-1.9
			c0-0.6,0.3-1.2,0.6-1.9l4-8.6c0.3-0.9,0.9-1.2,1.5-1.2c0.6,0,0.9,0.3,1.5,0.6c5.9,3.7,9.9,5.6,13.3,5.6c4.3,0,7.4-3.1,9.3-7.4
			c1.9-4,2.5-9.9,2.5-16.4c0-0.9,0-1.9,0-1.9c-3.7,2.2-9.9,3.4-13,3.4c-17,0-25.9-16.1-25.9-33.3c0-18.5,10.5-32.1,23.5-32.1
			c7.1,0,13.6,4.3,17.9,9.6c0,0,2.2-5.6,2.5-6.2c0.3-0.6,0.6-0.9,1.5-0.9h6.8c0.6,0,1.2,0.6,1.2,1.5v53.1
			C317.7,58.1,317.1,68.3,313.4,75.1L313.4,75.1z M303.2,5.3c-3.4-3.1-7.4-4.9-11.1-4.9s-6.5,1.5-8.6,4.6c-2.8,3.7-4,9.6-4,16.1
			c0,10.2,3.7,20.7,11.7,20.7c4,0,8.3-1.2,12-4.3L303.2,5.3L303.2,5.3z"/>
		<path id="path46" fill="#010202" d="M591.6,85c-1.5,0-9.3,0-10.5,0c-1.2,0-1.9-0.6-2.2-1.5c-0.6-1.9-4.9-13.3-6.8-18.2
			c-1.2-3.4-4.6-13.3-4.6-13.3h-0.3c0,0-2.5,7.1-4,10.8c-1.2,2.8-6.8,18.2-7.7,20.1c-0.3,0.9-0.9,2.2-2.5,2.2c-2.2,0-10.2,0-11.4,0
			c-1.2,0-1.9-1.2-1.5-2.2c0.3-0.9,18.5-42.3,18.5-42.3S539.1-5.8,538.5-7c-0.6-0.9,0-2.5,1.5-2.5c1.2,0,8.3,0,9.9,0
			c1.9,0,2.5,0.9,2.8,2.5c1.5,4,3.7,9.6,6.5,18.2c1.9,5.9,5.2,15.7,5.2,15.7h0.3c0,0,3.4-10.2,4.6-13.6c3.4-8.3,7.4-19.5,8-20.7
			c0.3-1.2,1.2-2.2,2.2-2.2c1.2,0,10.2,0,11.4,0s1.5,1.2,1.2,2.5c-1.2,2.8-12,28.7-19.5,46c0,0,19.5,42.9,19.8,43.8
			C593.1,83.8,593.1,85,591.6,85L591.6,85z"/>
		<path id="path48" fill="#E52620" d="M275.7,145.8h-13c-1.2,0-1.9-0.6-2.2-1.5c-0.3-0.9-19.8-60.5-21-65.5
			c-0.9-3.4-4.3-16.1-4.9-18.8l-6.8,18.5c-1.5,5.2-17.6,49.4-17.9,51.3c-0.3,0.9-0.6,2.2-2.5,2.2h-13c-1.2,0-1.9-1.2-1.5-2.2
			c0.3-0.6,23.5-62.4,32.7-85.8V-7.9c0-0.9,0.3-1.5,1.2-1.5h12c0.6,0,1.2,0.6,1.2,1.5v49.1v2.2c7.7,21.9,36.4,99.4,36.7,100.3
			C277.6,144.6,277.6,145.8,275.7,145.8L275.7,145.8z"/>
	</g>
</g>
</svg>
